# xmcd
#
# Track frame offsets:
#	150
#	16901
#	37989
#	63054
#	81737
#	99908
#	126075
#	142089
#	161102
#	181930
#	199602
#	225139
#	244687
#	265309
#
# Disc length: 3914 seconds
# Revision: 0
# Processed by: cddbd v1.5.2PL0 Copyright (c) Steve Scherf et al.
# Submitted via: dBpowerAMP V12.0
#
DISCID=b10f480e
DTITLE=The Weeknd - Beauty Behind The Madness
DYEAR=2015
DGENRE=R&B
TTITLE0=Real Life
TTITLE1=Losers
TTITLE2=Tell Your Friends
TTITLE3=Often
TTITLE4=The Hills
TTITLE5=Acquainted
TTITLE6=Can’t Feel My Face
TTITLE7=Shameless
TTITLE8=Earned It (Fifty Shades Of Grey)
TTITLE9=In The Night
TTITLE10=As You Are
TTITLE11=Dark Times
TTITLE12=Prisoner
TTITLE13=Angel
EXTD=
EXTT0=
EXTT1=
EXTT2=
EXTT3=
EXTT4=
EXTT5=
EXTT6=
EXTT7=
EXTT8=
EXTT9=
EXTT10=
EXTT11=
EXTT12=
EXTT13=
PLAYORDER=
